<?xml version="1.0" encoding="UTF-8" standalone="no"?>
<!DOCTYPE svg PUBLIC "-//W3C//DTD SVG 1.1//EN" "http://www.w3.org/Graphics/SVG/1.1/DTD/svg11.dtd">
<svg width="100%" height="100%" viewBox="0 0 101 54" version="1.1" xmlns="http://www.w3.org/2000/svg" xmlns:xlink="http://www.w3.org/1999/xlink" xml:space="preserve" xmlns:serif="http://www.serif.com/" style="fill-rule:evenodd;clip-rule:evenodd;stroke-linejoin:round;stroke-miterlimit:2;">
    <g transform="matrix(1,0,0,1,-3.73237,-0.000134691)">
        <g transform="matrix(1,0,0,1,-24.2395,-23.1411)">
            <g transform="matrix(3.96812,0,0,3.96812,27.2744,57.8778)">
                <path d="M0.281,-5.215C0.477,-5.98 0.82,-6.668 1.313,-7.277C1.805,-7.895 2.359,-8.324 2.977,-8.566C3.109,-8.629 3.215,-8.668 3.293,-8.684C3.371,-8.699 3.465,-8.707 3.574,-8.707C3.691,-8.707 3.781,-8.699 3.844,-8.684C3.898,-8.668 3.992,-8.625 4.125,-8.555C4.367,-8.422 4.531,-8.32 4.617,-8.25C4.695,-8.188 4.762,-8.09 4.816,-7.957C4.91,-7.738 4.961,-7.535 4.969,-7.348L4.969,-7.242C4.969,-7.102 4.953,-6.969 4.922,-6.844C4.852,-6.563 4.738,-6.344 4.582,-6.188C4.418,-6.039 4.32,-5.965 4.289,-5.965C4.25,-5.965 4.18,-5.992 4.078,-6.047C3.984,-6.102 3.926,-6.148 3.902,-6.188C3.887,-6.211 3.887,-6.238 3.902,-6.27C3.918,-6.293 3.957,-6.336 4.02,-6.398C4.082,-6.469 4.172,-6.637 4.289,-6.902C4.414,-7.16 4.453,-7.418 4.406,-7.676C4.375,-7.832 4.336,-7.93 4.289,-7.969C4.242,-8 4.137,-8.016 3.973,-8.016C3.863,-8.016 3.77,-8.008 3.691,-7.992C3.621,-7.977 3.531,-7.941 3.422,-7.887C2.891,-7.66 2.402,-7.316 1.957,-6.855C1.52,-6.395 1.227,-5.867 1.078,-5.273C0.969,-4.875 0.902,-4.547 0.879,-4.289C0.848,-4.031 0.875,-3.824 0.961,-3.668C1.047,-3.504 1.172,-3.367 1.336,-3.258C1.508,-3.156 1.695,-3.059 1.898,-2.965C2.281,-2.801 2.672,-2.609 3.07,-2.391C3.469,-2.172 3.746,-1.793 3.902,-1.254C3.957,-1.059 3.961,-0.82 3.914,-0.539C3.867,-0.258 3.773,0.008 3.633,0.258C3.563,0.391 3.477,0.512 3.375,0.621C3.273,0.73 3.164,0.816 3.047,0.879C2.953,0.926 2.855,0.957 2.754,0.973C2.707,0.98 2.656,0.984 2.602,0.984C2.547,0.984 2.492,0.98 2.438,0.973C2.203,0.941 1.996,0.887 1.816,0.809C1.629,0.73 1.434,0.559 1.23,0.293C1.09,0.113 0.988,-0.082 0.926,-0.293C0.863,-0.512 0.902,-0.691 1.043,-0.832C1.121,-0.91 1.219,-0.93 1.336,-0.891C1.445,-0.859 1.551,-0.781 1.652,-0.656C1.691,-0.594 1.711,-0.551 1.711,-0.527C1.719,-0.496 1.711,-0.445 1.688,-0.375C1.625,-0.133 1.637,0.063 1.723,0.211C1.809,0.367 1.949,0.441 2.145,0.434C2.309,0.426 2.449,0.387 2.566,0.316C2.691,0.254 2.793,0.168 2.871,0.059C3.027,-0.137 3.129,-0.359 3.176,-0.609C3.223,-0.859 3.242,-1.047 3.234,-1.172C3.219,-1.352 3.188,-1.492 3.141,-1.594C3.086,-1.703 3.004,-1.809 2.895,-1.91C2.645,-2.129 2.391,-2.277 2.133,-2.355C1.867,-2.434 1.605,-2.539 1.348,-2.672C1.207,-2.742 1.07,-2.832 0.938,-2.941C0.805,-3.051 0.68,-3.195 0.563,-3.375C0.352,-3.68 0.227,-3.965 0.188,-4.23C0.18,-4.309 0.176,-4.391 0.176,-4.477C0.176,-4.695 0.211,-4.941 0.281,-5.215Z" style="fill:rgb(0,153,255);fill-rule:nonzero;"/>
            </g>
        </g>
        <g transform="matrix(1,0,0,1,-24.2395,-23.1411)">
            <g transform="matrix(3.96812,0,0,3.96812,23.5433,57.8778)">
                <path d="M5.848,-3.234C5.91,-3.195 5.98,-3.156 6.059,-3.117C6.137,-3.078 6.199,-3.051 6.246,-3.035C6.309,-3.012 6.367,-2.98 6.422,-2.941C6.469,-2.902 6.523,-2.848 6.586,-2.777C6.711,-2.629 6.793,-2.5 6.832,-2.391C6.871,-2.289 6.887,-2.16 6.879,-2.004L6.879,-1.934C6.879,-1.801 6.871,-1.703 6.855,-1.641C6.84,-1.578 6.805,-1.496 6.75,-1.395C6.672,-1.246 6.594,-1.137 6.516,-1.066C6.445,-0.996 6.332,-0.938 6.176,-0.891C6.082,-0.859 6.008,-0.84 5.953,-0.832C5.938,-0.824 5.922,-0.82 5.906,-0.82C5.875,-0.82 5.844,-0.828 5.813,-0.844C5.656,-0.891 5.52,-0.973 5.402,-1.09C5.285,-1.215 5.188,-1.375 5.109,-1.57C5.063,-1.68 5.035,-1.77 5.027,-1.84C5.012,-1.91 5.004,-2.02 5.004,-2.168L5.004,-2.191C5.004,-2.293 5.008,-2.395 5.016,-2.496C5.023,-2.59 5.035,-2.656 5.051,-2.695C5.059,-2.734 5.074,-2.781 5.098,-2.836C5.121,-2.891 5.141,-2.938 5.156,-2.977C5.203,-3.055 5.273,-3.141 5.367,-3.234C5.461,-3.328 5.527,-3.375 5.566,-3.375C5.574,-3.375 5.605,-3.359 5.66,-3.328C5.715,-3.305 5.777,-3.273 5.848,-3.234ZM5.66,-2.109C5.645,-2.055 5.633,-2.008 5.625,-1.969C5.617,-1.93 5.613,-1.906 5.613,-1.898C5.613,-1.891 5.617,-1.871 5.625,-1.84C5.625,-1.801 5.629,-1.754 5.637,-1.699C5.645,-1.645 5.656,-1.594 5.672,-1.547C5.688,-1.508 5.703,-1.484 5.719,-1.477C5.727,-1.469 5.742,-1.465 5.766,-1.465C5.781,-1.465 5.805,-1.473 5.836,-1.488C5.883,-1.512 5.941,-1.559 6.012,-1.629C6.09,-1.707 6.145,-1.793 6.176,-1.887C6.207,-1.98 6.227,-2.109 6.234,-2.273L6.234,-2.402C6.234,-2.457 6.23,-2.496 6.223,-2.52C6.215,-2.559 6.184,-2.605 6.129,-2.66C6.098,-2.684 6.066,-2.707 6.035,-2.73C6.004,-2.754 5.984,-2.766 5.977,-2.766C5.945,-2.766 5.887,-2.684 5.801,-2.52C5.723,-2.348 5.676,-2.211 5.66,-2.109Z" style="fill:rgb(0,153,255);fill-rule:nonzero;"/>
            </g>
        </g>
        <g transform="matrix(1,0,0,1,-24.2395,-23.1411)">
            <g transform="matrix(3.96812,0,0,3.96812,23.5433,57.8778)">
                <path d="M7.184,-3.141C7.184,-3.203 7.211,-3.238 7.266,-3.246C7.313,-3.254 7.406,-3.234 7.547,-3.188C7.719,-3.125 7.824,-3.063 7.863,-3C7.895,-2.938 7.879,-2.82 7.816,-2.648C7.762,-2.469 7.727,-2.254 7.711,-2.004C7.703,-1.754 7.727,-1.629 7.781,-1.629C7.813,-1.629 7.898,-1.727 8.039,-1.922C8.18,-2.109 8.313,-2.336 8.438,-2.602C8.68,-3.109 8.824,-3.418 8.871,-3.527C8.918,-3.637 8.957,-3.691 8.988,-3.691C9.152,-3.676 9.281,-3.656 9.375,-3.633C9.469,-3.617 9.535,-3.594 9.574,-3.563C9.629,-3.516 9.664,-3.422 9.68,-3.281C9.695,-3.133 9.711,-2.789 9.727,-2.25C9.734,-2.078 9.742,-1.93 9.75,-1.805C9.758,-1.672 9.762,-1.605 9.762,-1.605C9.777,-1.59 9.859,-1.656 10.008,-1.805C10.148,-1.961 10.332,-2.172 10.559,-2.438C10.66,-2.555 10.75,-2.656 10.828,-2.742C10.914,-2.828 10.965,-2.875 10.98,-2.883C10.996,-2.883 11.031,-2.875 11.086,-2.859C11.148,-2.844 11.211,-2.824 11.273,-2.801C11.414,-2.73 11.484,-2.668 11.484,-2.613C11.484,-2.566 11.414,-2.484 11.273,-2.367C11.109,-2.203 10.973,-2.031 10.863,-1.852C10.762,-1.68 10.496,-1.41 10.066,-1.043C10.012,-0.996 9.938,-0.969 9.844,-0.961C9.75,-0.945 9.664,-0.949 9.586,-0.973C9.5,-0.996 9.406,-1.066 9.305,-1.184C9.203,-1.301 9.133,-1.422 9.094,-1.547C9.078,-1.602 9.066,-1.672 9.059,-1.758C9.051,-1.844 9.047,-1.922 9.047,-1.992C9.039,-2.109 9.035,-2.176 9.035,-2.191C9.027,-2.215 9.012,-2.207 8.988,-2.168C8.973,-2.152 8.941,-2.105 8.895,-2.027C8.848,-1.949 8.801,-1.863 8.754,-1.77C8.66,-1.59 8.559,-1.441 8.449,-1.324C8.332,-1.207 8.188,-1.102 8.016,-1.008C7.914,-0.961 7.844,-0.93 7.805,-0.914L7.758,-0.914C7.727,-0.914 7.684,-0.922 7.629,-0.938C7.582,-0.945 7.539,-0.957 7.5,-0.973C7.453,-0.988 7.422,-1 7.406,-1.008C7.352,-1.055 7.289,-1.141 7.219,-1.266C7.141,-1.383 7.094,-1.48 7.078,-1.559C7.039,-1.738 7.02,-1.918 7.02,-2.098C7.02,-2.262 7.035,-2.426 7.066,-2.59C7.145,-2.926 7.184,-3.109 7.184,-3.141Z" style="fill:rgb(0,153,255);fill-rule:nonzero;"/>
            </g>
        </g>
        <g transform="matrix(1,0,0,1,-24.2395,-23.1411)">
            <g transform="matrix(3.96812,0,0,3.96812,16.8916,57.8778)">
                <path d="M14.238,-4.137C14.238,-4.145 14.246,-4.148 14.262,-4.148C14.309,-4.141 14.387,-4.105 14.496,-4.043C14.629,-3.973 14.715,-3.906 14.754,-3.844C14.77,-3.82 14.781,-3.773 14.789,-3.703C14.797,-3.633 14.801,-3.555 14.801,-3.469C14.801,-3.133 14.805,-2.855 14.813,-2.637C14.813,-2.426 14.816,-2.305 14.824,-2.273C14.824,-2.258 14.832,-2.254 14.848,-2.262C14.863,-2.27 14.887,-2.293 14.918,-2.332C14.965,-2.387 15.074,-2.559 15.246,-2.848C15.418,-3.137 15.52,-3.313 15.551,-3.375C15.559,-3.398 15.578,-3.438 15.609,-3.492C15.641,-3.547 15.672,-3.602 15.703,-3.656C15.781,-3.773 15.848,-3.844 15.902,-3.867C15.965,-3.883 16.063,-3.859 16.195,-3.797C16.344,-3.734 16.441,-3.672 16.488,-3.609C16.535,-3.547 16.566,-3.441 16.582,-3.293C16.598,-3.223 16.609,-3.156 16.617,-3.094C16.625,-3.031 16.633,-2.992 16.641,-2.977C16.641,-2.961 16.656,-2.973 16.688,-3.012C16.727,-3.051 16.77,-3.105 16.816,-3.176C17.059,-3.559 17.199,-3.777 17.238,-3.832C17.277,-3.879 17.324,-3.898 17.379,-3.891C17.48,-3.867 17.582,-3.824 17.684,-3.762C17.785,-3.691 17.859,-3.617 17.906,-3.539C17.938,-3.469 17.957,-3.406 17.965,-3.352C17.973,-3.297 17.973,-3.203 17.965,-3.07C17.957,-2.984 17.953,-2.875 17.953,-2.742C17.945,-2.609 17.945,-2.492 17.953,-2.391C17.961,-2.289 17.973,-2.152 17.988,-1.98C17.996,-1.816 18.004,-1.664 18.012,-1.523C18.02,-1.391 18.031,-1.266 18.047,-1.148C18.063,-1.023 18.074,-0.941 18.082,-0.902C18.098,-0.855 18.105,-0.813 18.105,-0.773L18.105,-0.762C18.105,-0.73 18.094,-0.691 18.07,-0.645C18.039,-0.574 17.988,-0.535 17.918,-0.527L17.906,-0.527C17.844,-0.527 17.766,-0.555 17.672,-0.609C17.563,-0.688 17.488,-0.777 17.449,-0.879C17.418,-0.988 17.402,-1.164 17.402,-1.406L17.402,-1.816C17.395,-1.98 17.391,-2.121 17.391,-2.238C17.383,-2.355 17.375,-2.477 17.367,-2.602L17.367,-2.883C17.359,-2.938 17.352,-2.988 17.344,-3.035C17.344,-3.074 17.34,-3.094 17.332,-3.094C17.316,-3.102 17.266,-3.02 17.18,-2.848C17.102,-2.684 17.059,-2.582 17.051,-2.543C17.051,-2.512 17,-2.414 16.898,-2.25C16.797,-2.094 16.73,-2.008 16.699,-1.992C16.629,-1.953 16.543,-1.957 16.441,-2.004C16.332,-2.051 16.238,-2.121 16.16,-2.215C16.105,-2.293 16.066,-2.371 16.043,-2.449C16.027,-2.527 16.023,-2.625 16.031,-2.742C16.039,-2.797 16.039,-2.848 16.031,-2.895C16.031,-2.941 16.027,-2.969 16.02,-2.977C16.004,-2.984 15.941,-2.906 15.832,-2.742C15.73,-2.57 15.664,-2.441 15.633,-2.355C15.625,-2.332 15.602,-2.281 15.563,-2.203C15.516,-2.125 15.465,-2.047 15.41,-1.969C15.184,-1.617 15.004,-1.395 14.871,-1.301C14.738,-1.207 14.605,-1.207 14.473,-1.301C14.348,-1.395 14.27,-1.531 14.238,-1.711C14.199,-1.891 14.18,-2.289 14.18,-2.906L14.18,-3.973C14.18,-4.027 14.184,-4.066 14.191,-4.09C14.191,-4.113 14.207,-4.129 14.238,-4.137Z" style="fill:rgb(0,153,255);fill-rule:nonzero;"/>
            </g>
        </g>
        <g transform="matrix(1,0,0,1,-24.2395,-23.1411)">
            <g transform="matrix(3.96812,0,0,3.96812,16.8916,57.8778)">
                <path d="M18.234,-2.648C18.273,-2.859 18.344,-3.055 18.445,-3.234C18.547,-3.406 18.668,-3.543 18.809,-3.645C18.879,-3.691 18.996,-3.738 19.16,-3.785C19.324,-3.832 19.453,-3.855 19.547,-3.855C19.641,-3.855 19.719,-3.793 19.781,-3.668C19.836,-3.543 19.836,-3.441 19.781,-3.363C19.766,-3.34 19.73,-3.309 19.676,-3.27C19.613,-3.23 19.547,-3.191 19.477,-3.152C19.328,-3.074 19.215,-2.992 19.137,-2.906C19.059,-2.828 19,-2.723 18.961,-2.59C18.922,-2.465 18.895,-2.332 18.879,-2.191C18.863,-2.043 18.867,-1.961 18.891,-1.945C18.953,-1.914 19.066,-1.992 19.23,-2.18C19.402,-2.367 19.57,-2.609 19.734,-2.906C19.82,-3.063 19.902,-3.23 19.98,-3.41C20.059,-3.59 20.117,-3.77 20.156,-3.949C20.18,-4.02 20.199,-4.098 20.215,-4.184C20.23,-4.27 20.238,-4.34 20.238,-4.395C20.238,-4.52 20.258,-4.598 20.297,-4.629C20.313,-4.645 20.336,-4.652 20.367,-4.652C20.398,-4.652 20.441,-4.641 20.496,-4.617C20.527,-4.602 20.566,-4.59 20.613,-4.582C20.66,-4.566 20.699,-4.559 20.73,-4.559C20.785,-4.559 20.824,-4.551 20.848,-4.535C20.879,-4.52 20.91,-4.492 20.941,-4.453C20.98,-4.398 21,-4.344 21,-4.289C21.008,-4.242 21,-4.113 20.977,-3.902C20.922,-3.223 20.891,-2.668 20.883,-2.238C20.875,-1.809 20.898,-1.531 20.953,-1.406C20.961,-1.383 20.973,-1.352 20.988,-1.313C21.004,-1.336 21.035,-1.375 21.082,-1.43C21.395,-1.781 21.629,-2.051 21.785,-2.238C21.941,-2.426 22.063,-2.594 22.148,-2.742C22.211,-2.852 22.266,-2.91 22.313,-2.918C22.359,-2.926 22.453,-2.898 22.594,-2.836C22.719,-2.773 22.797,-2.715 22.828,-2.66C22.844,-2.629 22.852,-2.602 22.852,-2.578C22.852,-2.539 22.84,-2.5 22.816,-2.461C22.816,-2.461 22.742,-2.371 22.594,-2.191C22.445,-2.012 22.281,-1.816 22.102,-1.605C21.977,-1.465 21.855,-1.328 21.738,-1.195C21.621,-1.063 21.523,-0.953 21.445,-0.867C21.258,-0.719 21.082,-0.645 20.918,-0.645C20.879,-0.645 20.84,-0.648 20.801,-0.656C20.605,-0.703 20.441,-0.863 20.309,-1.137C20.285,-1.191 20.262,-1.27 20.238,-1.371C20.223,-1.473 20.207,-1.598 20.191,-1.746C20.184,-1.848 20.168,-1.996 20.145,-2.191C20.129,-2.176 20.105,-2.148 20.074,-2.109C20.059,-2.086 20.039,-2.055 20.016,-2.016C19.992,-1.977 19.977,-1.945 19.969,-1.922C19.945,-1.867 19.859,-1.773 19.711,-1.641C19.57,-1.508 19.461,-1.422 19.383,-1.383C19.289,-1.336 19.199,-1.313 19.113,-1.313C19.027,-1.305 18.938,-1.324 18.844,-1.371C18.719,-1.426 18.617,-1.492 18.539,-1.57C18.453,-1.656 18.383,-1.762 18.328,-1.887C18.273,-2.012 18.238,-2.137 18.223,-2.262C18.215,-2.309 18.211,-2.355 18.211,-2.402C18.211,-2.48 18.219,-2.563 18.234,-2.648Z" style="fill:rgb(0,153,255);fill-rule:nonzero;"/>
            </g>
        </g>
        <g transform="matrix(1,0,0,1,-24.2395,-23.1411)">
            <g transform="matrix(3.96812,0,0,3.96812,16.8916,57.8778)">
                <path d="M21.539,-6.996L21.68,-6.996C21.742,-7.004 21.797,-7.012 21.844,-7.02C21.883,-7.02 22.082,-7.035 22.441,-7.066C22.801,-7.098 23,-7.129 23.039,-7.16C23.055,-7.184 23.07,-7.234 23.086,-7.313C23.102,-7.398 23.121,-7.52 23.145,-7.676C23.168,-7.824 23.191,-7.969 23.215,-8.109C23.238,-8.242 23.254,-8.328 23.262,-8.367C23.277,-8.398 23.289,-8.438 23.297,-8.484C23.305,-8.531 23.309,-8.57 23.309,-8.602C23.309,-8.688 23.336,-8.734 23.391,-8.742C23.398,-8.742 23.406,-8.746 23.414,-8.754C23.469,-8.754 23.559,-8.73 23.684,-8.684C23.887,-8.598 24,-8.523 24.023,-8.461C24.055,-8.398 24.035,-8.246 23.965,-8.004C23.934,-7.926 23.906,-7.828 23.883,-7.711C23.859,-7.594 23.844,-7.492 23.836,-7.406C23.828,-7.344 23.813,-7.242 23.789,-7.102C23.859,-7.102 23.957,-7.105 24.082,-7.113C24.16,-7.113 24.27,-7.117 24.41,-7.125C24.551,-7.133 24.676,-7.141 24.785,-7.148C24.973,-7.164 25.281,-7.184 25.711,-7.207C26.133,-7.223 26.664,-7.207 27.305,-7.16L27.809,-7.16C27.84,-7.129 27.883,-7.086 27.938,-7.031C28.039,-6.938 28.105,-6.836 28.137,-6.727C28.152,-6.688 28.16,-6.652 28.16,-6.621C28.16,-6.574 28.141,-6.543 28.102,-6.527C28.094,-6.52 28.031,-6.516 27.914,-6.516L27.516,-6.516C27.125,-6.531 26.688,-6.539 26.203,-6.539C25.711,-6.531 25.25,-6.516 24.82,-6.492C24.617,-6.484 24.422,-6.477 24.234,-6.469C24.055,-6.461 23.938,-6.453 23.883,-6.445C23.797,-6.445 23.738,-6.438 23.707,-6.422C23.684,-6.414 23.66,-6.387 23.637,-6.34C23.535,-5.707 23.438,-5.082 23.344,-4.465C23.25,-3.84 23.176,-3.098 23.121,-2.238C23.074,-1.496 23.047,-0.855 23.039,-0.316C23.031,0.23 23.035,0.695 23.051,1.078C23.09,1.805 23.148,2.313 23.227,2.602C23.313,2.891 23.375,3.086 23.414,3.188C23.563,3.484 23.738,3.715 23.941,3.879C24.145,4.043 24.348,4.141 24.551,4.172C24.84,4.211 25.117,4.168 25.383,4.043C25.648,3.91 25.855,3.789 26.004,3.68C26.02,3.672 26.082,3.719 26.191,3.82C26.309,3.922 26.359,4.063 26.344,4.242C26.141,4.406 25.941,4.531 25.746,4.617C25.551,4.703 25.367,4.766 25.195,4.805C25.031,4.836 24.879,4.852 24.738,4.852C24.59,4.852 24.453,4.832 24.328,4.793C24.078,4.73 23.895,4.656 23.777,4.57C23.652,4.484 23.504,4.352 23.332,4.172C23.168,4 23.047,3.852 22.969,3.727C22.891,3.586 22.805,3.41 22.711,3.199C22.625,2.98 22.551,2.758 22.488,2.531C22.418,2.313 22.344,1.77 22.266,0.902C22.188,0.027 22.199,-1.066 22.301,-2.379C22.324,-2.699 22.355,-3.031 22.395,-3.375C22.434,-3.711 22.477,-4.035 22.523,-4.348C22.609,-4.934 22.691,-5.434 22.77,-5.848C22.84,-6.262 22.875,-6.469 22.875,-6.469C22.859,-6.492 22.746,-6.488 22.535,-6.457C22.332,-6.434 22.129,-6.426 21.926,-6.434C21.832,-6.441 21.719,-6.484 21.586,-6.563C21.453,-6.641 21.387,-6.723 21.387,-6.809L21.387,-6.82C21.395,-6.852 21.41,-6.891 21.434,-6.938C21.449,-6.977 21.484,-6.996 21.539,-6.996Z" style="fill:rgb(0,153,255);fill-rule:nonzero;"/>
            </g>
        </g>
        <g transform="matrix(1,0,0,1,-24.2395,-23.1411)">
            <g transform="matrix(3.96812,0,0,3.96812,13.2021,57.8778)">
                <path d="M25.91,-4.066C25.988,-4.043 26.059,-4.012 26.121,-3.973C26.191,-3.934 26.293,-3.855 26.426,-3.738C26.574,-3.613 26.625,-3.43 26.578,-3.188C26.523,-2.953 26.371,-2.672 26.121,-2.344C26.012,-2.195 25.883,-2.059 25.734,-1.934C25.594,-1.801 25.465,-1.711 25.348,-1.664C25.309,-1.648 25.273,-1.629 25.242,-1.605C25.219,-1.59 25.207,-1.578 25.207,-1.57C25.207,-1.5 25.273,-1.41 25.406,-1.301C25.539,-1.191 25.738,-1.188 26.004,-1.289C26.293,-1.398 26.523,-1.59 26.695,-1.863C26.875,-2.129 26.969,-2.266 26.977,-2.273C27.039,-2.422 27.148,-2.445 27.305,-2.344C27.453,-2.234 27.531,-2.18 27.539,-2.18L27.539,-2.145C27.539,-2.09 27.496,-1.98 27.41,-1.816C27.309,-1.621 27.156,-1.426 26.953,-1.23C26.836,-1.121 26.707,-1.023 26.566,-0.938C26.426,-0.844 26.273,-0.773 26.109,-0.727C26.023,-0.695 25.934,-0.684 25.84,-0.691C25.738,-0.691 25.629,-0.707 25.512,-0.738C25.301,-0.793 25.125,-0.891 24.984,-1.031C24.789,-1.234 24.656,-1.477 24.586,-1.758C24.555,-1.914 24.539,-2.082 24.539,-2.262C24.539,-2.41 24.551,-2.57 24.574,-2.742C24.613,-2.984 24.699,-3.207 24.832,-3.41C24.965,-3.613 25.129,-3.781 25.324,-3.914C25.465,-4.008 25.57,-4.063 25.641,-4.078C25.664,-4.086 25.691,-4.09 25.723,-4.09C25.777,-4.09 25.84,-4.082 25.91,-4.066ZM25.688,-3.352C25.586,-3.266 25.477,-3.141 25.359,-2.977C25.25,-2.82 25.184,-2.695 25.16,-2.602C25.145,-2.516 25.137,-2.445 25.137,-2.391L25.137,-2.379C25.137,-2.316 25.148,-2.285 25.172,-2.285C25.258,-2.285 25.434,-2.457 25.699,-2.801C25.965,-3.145 26.098,-3.375 26.098,-3.492C26.098,-3.508 26.094,-3.52 26.086,-3.527C26.07,-3.535 26.055,-3.539 26.039,-3.539C26,-3.539 25.949,-3.523 25.887,-3.492C25.824,-3.461 25.758,-3.414 25.688,-3.352Z" style="fill:rgb(0,153,255);fill-rule:nonzero;"/>
            </g>
        </g>
        <g transform="matrix(1,0,0,1,-24.2395,-23.1411)">
            <g transform="matrix(1,0,0,1,24.2395,23.1411)">
                <path d="M52.561,27.872L51.811,29.664C50.571,31.152 50.03,32.204 49.007,33.63C47.953,35.056 47.178,35.893 46.682,36.141C46.279,36.327 45.876,36.42 45.473,36.42C45.101,36.42 44.744,36.327 44.403,36.141C43.69,35.738 43.194,35.025 42.915,34.002C42.574,32.762 42.357,31.103 42.264,29.026C42.171,27.383 42.125,25.662 42.125,23.864L42.125,22.469C42.156,21.229 42.187,19.974 42.218,18.703C42.28,17.432 42.326,16.207 42.357,15.029C42.481,12.797 42.605,10.813 42.729,9.077C42.884,7.31 42.977,6.132 43.008,5.543C43.101,4.737 43.163,4.024 43.194,3.404C43.225,2.784 43.225,2.443 43.194,2.381C43.163,2.288 43.148,2.21 43.148,2.148C43.179,2.086 43.21,2.04 43.241,2.009C43.303,1.978 43.396,1.962 43.52,1.962C43.768,1.962 44.155,2.071 44.682,2.288C45.426,2.66 45.86,3.001 45.984,3.311C46.046,3.404 46.062,3.714 46.031,4.241C46,4.768 45.938,5.434 45.845,6.24C45.721,7.821 45.55,9.821 45.333,12.239C45.116,14.688 44.961,17.292 44.868,20.051C44.775,23.926 44.775,26.825 44.868,28.747C44.992,30.669 45.116,32.002 45.24,32.746C45.271,32.777 45.364,32.963 45.519,33.304C45.643,33.614 45.907,33.583 46.31,33.211C46.837,32.746 47.473,32.018 48.217,31.026C48.67,30.402 49.884,28.307 50.361,27.683L52.561,27.872Z" style="fill:rgb(0,153,255);fill-rule:nonzero;"/>
            </g>
        </g>
    </g>
</svg>
